<?xml version="1.0" ?><svg fill="none" height="24" viewBox="0 0 24 24" width="24" xmlns="http://www.w3.org/2000/svg"><path clip-rule="evenodd" d="M5.9741 4.11953C5.67024 3.95591 5.3035 3.96054 5.00386 4.13176L1.50386 6.13176C1.19229 6.3098 1 6.64114 1 7V14.5C1 14.8935 1.23078 15.2504 1.58964 15.4119L11.5896 19.9119C11.8506 20.0294 12.1494 20.0294 12.4104 19.9119L22.4104 15.4119C22.7692 15.2504 23 14.8935 23 14.5V7C23 6.64114 22.8077 6.3098 22.4961 6.13176L18.9961 4.13176C18.6965 3.96054 18.3298 3.95591 18.0259 4.11953L12 7.36424L5.9741 4.11953ZM6 12.5H4.5V10.5H6V9H8V10.5H9.5V12.5H8V14H6V12.5ZM17.5 14H15.5V12H17.5V14ZM17.5 11H19.5V9H17.5V11Z" fill="black" fill-rule="evenodd"/></svg>